<svg width="24" height="24" viewBox="0 0 24 24" fill="none" xmlns="http://www.w3.org/2000/svg">
<path d="M15.5794 19.6038C15.8487 19.35 16 19.0059 16 18.6471C16 18.2882 15.8487 17.9441 15.5794 17.6903L8.46782 10.9918L15.5794 4.29334C15.8411 4.03811 15.9859 3.69628 15.9826 3.34147C15.9793 2.98666 15.8282 2.64725 15.5619 2.39635C15.2955 2.14545 14.9352 2.00314 14.5585 2.00005C14.1818 1.99697 13.8189 2.13337 13.5479 2.37987L5.42064 10.0351C5.1513 10.2889 5 10.633 5 10.9918C5 11.3507 5.1513 11.6948 5.42064 11.9486L13.5479 19.6038C13.8173 19.8575 14.1827 20 14.5636 20C14.9446 20 15.3099 19.8575 15.5794 19.6038Z" fill="white"/>
</svg>
